<mxfile host="app.diagrams.net" modified="2021-07-26T01:14:11.280Z" agent="5.0 (Windows NT 10.0; WOW64) AppleWebKit/537.36 (KHTML, like Gecko) Chrome/83.0.4103.61 Safari/537.36" etag="nb__VZ_uFP8-tXww2mvM" version="14.9.2" type="github">
  <diagram id="om7GCIjXOvIVFAaJFHCs" name="第 1 页">
    <mxGraphModel dx="409" dy="-937" grid="1" gridSize="10" guides="1" tooltips="1" connect="1" arrows="1" fold="1" page="0" pageScale="1" pageWidth="827" pageHeight="1169" math="0" shadow="0">
      <root>
        <mxCell id="0" />
        <mxCell id="1" parent="0" />
        <mxCell id="T1pnPK0idN3J2CBUCr8N-53" value="" style="html=1;shadow=0;dashed=0;align=center;verticalAlign=middle;shape=mxgraph.arrows2.arrow;dy=0.6;dx=40;notch=0;rounded=1;glass=0;sketch=0;fontColor=#143642;strokeColor=#0F8B8D;fillColor=#FAE5C7;" parent="1" vertex="1">
          <mxGeometry x="1450" y="1990" width="70" height="20" as="geometry" />
        </mxCell>
        <mxCell id="T1pnPK0idN3J2CBUCr8N-194" value="7" style="ellipse;whiteSpace=wrap;html=1;aspect=fixed;fillColor=#f8cecc;strokeColor=#b85450;gradientColor=#ea6b66;" parent="1" vertex="1">
          <mxGeometry x="1120" y="2120" width="40" height="40" as="geometry" />
        </mxCell>
        <mxCell id="T1pnPK0idN3J2CBUCr8N-195" value="3" style="ellipse;whiteSpace=wrap;html=1;aspect=fixed;fillColor=#f5f5f5;strokeColor=#666666;gradientColor=#b3b3b3;" parent="1" vertex="1">
          <mxGeometry x="1080" y="2040" width="40" height="40" as="geometry" />
        </mxCell>
        <mxCell id="T1pnPK0idN3J2CBUCr8N-196" value="8" style="ellipse;whiteSpace=wrap;html=1;aspect=fixed;fillColor=#f5f5f5;strokeColor=#666666;gradientColor=#b3b3b3;" parent="1" vertex="1">
          <mxGeometry x="1160" y="2040" width="40" height="40" as="geometry" />
        </mxCell>
        <mxCell id="T1pnPK0idN3J2CBUCr8N-197" style="edgeStyle=none;rounded=1;sketch=0;orthogonalLoop=1;jettySize=auto;html=1;exitX=0.5;exitY=1;exitDx=0;exitDy=0;entryX=0.5;entryY=0;entryDx=0;entryDy=0;fontColor=#143642;strokeColor=#A8201A;fillColor=#FAE5C7;" parent="1" target="T1pnPK0idN3J2CBUCr8N-195" edge="1">
          <mxGeometry x="1040" y="1880" as="geometry">
            <mxPoint x="1140" y="2000" as="sourcePoint" />
          </mxGeometry>
        </mxCell>
        <mxCell id="T1pnPK0idN3J2CBUCr8N-198" style="edgeStyle=none;rounded=1;sketch=0;orthogonalLoop=1;jettySize=auto;html=1;exitX=0.5;exitY=1;exitDx=0;exitDy=0;entryX=0.5;entryY=0;entryDx=0;entryDy=0;fontColor=#143642;strokeColor=#A8201A;fillColor=#FAE5C7;" parent="1" target="T1pnPK0idN3J2CBUCr8N-196" edge="1">
          <mxGeometry x="1040" y="1880" as="geometry">
            <mxPoint x="1140" y="2000" as="sourcePoint" />
          </mxGeometry>
        </mxCell>
        <mxCell id="T1pnPK0idN3J2CBUCr8N-199" style="rounded=1;sketch=0;orthogonalLoop=1;jettySize=auto;html=1;exitX=0.5;exitY=1;exitDx=0;exitDy=0;entryX=0.5;entryY=0;entryDx=0;entryDy=0;fontColor=#143642;strokeColor=#A8201A;fillColor=#FAE5C7;" parent="1" source="T1pnPK0idN3J2CBUCr8N-204" target="T1pnPK0idN3J2CBUCr8N-214" edge="1">
          <mxGeometry x="1200" y="1880" as="geometry">
            <mxPoint x="1380" y="1920" as="sourcePoint" />
            <mxPoint x="1180" y="1960" as="targetPoint" />
          </mxGeometry>
        </mxCell>
        <mxCell id="T1pnPK0idN3J2CBUCr8N-200" value="16" style="ellipse;whiteSpace=wrap;html=1;aspect=fixed;fillColor=#f5f5f5;strokeColor=#666666;gradientColor=#b3b3b3;" parent="1" vertex="1">
          <mxGeometry x="1400" y="2040" width="40" height="40" as="geometry" />
        </mxCell>
        <mxCell id="T1pnPK0idN3J2CBUCr8N-201" value="3" style="ellipse;whiteSpace=wrap;html=1;aspect=fixed;fillColor=#f5f5f5;strokeColor=#666666;gradientColor=#b3b3b3;" parent="1" vertex="1">
          <mxGeometry x="1080" y="2040" width="40" height="40" as="geometry" />
        </mxCell>
        <mxCell id="T1pnPK0idN3J2CBUCr8N-202" value="8" style="ellipse;whiteSpace=wrap;html=1;aspect=fixed;fillColor=#f5f5f5;strokeColor=#666666;gradientColor=#b3b3b3;" parent="1" vertex="1">
          <mxGeometry x="1160" y="2040" width="40" height="40" as="geometry" />
        </mxCell>
        <mxCell id="T1pnPK0idN3J2CBUCr8N-203" style="edgeStyle=none;rounded=0;orthogonalLoop=1;jettySize=auto;html=1;exitX=0.5;exitY=1;exitDx=0;exitDy=0;entryX=0.5;entryY=0;entryDx=0;entryDy=0;gradientColor=#ea6b66;fillColor=#f8cecc;strokeColor=#b85450;" parent="1" source="T1pnPK0idN3J2CBUCr8N-204" target="T1pnPK0idN3J2CBUCr8N-213" edge="1">
          <mxGeometry relative="1" as="geometry" />
        </mxCell>
        <mxCell id="T1pnPK0idN3J2CBUCr8N-204" value="12" style="ellipse;whiteSpace=wrap;html=1;aspect=fixed;fillColor=#f5f5f5;strokeColor=#666666;gradientColor=#b3b3b3;" parent="1" vertex="1">
          <mxGeometry x="1240" y="1880" width="40" height="40" as="geometry" />
        </mxCell>
        <mxCell id="T1pnPK0idN3J2CBUCr8N-205" value="3" style="ellipse;whiteSpace=wrap;html=1;aspect=fixed;fillColor=#f5f5f5;strokeColor=#666666;gradientColor=#b3b3b3;" parent="1" vertex="1">
          <mxGeometry x="1080" y="2040" width="40" height="40" as="geometry" />
        </mxCell>
        <mxCell id="T1pnPK0idN3J2CBUCr8N-206" style="edgeStyle=none;rounded=0;orthogonalLoop=1;jettySize=auto;html=1;exitX=0.5;exitY=1;exitDx=0;exitDy=0;entryX=0.5;entryY=0;entryDx=0;entryDy=0;strokeColor=#A8201A;" parent="1" source="T1pnPK0idN3J2CBUCr8N-208" target="T1pnPK0idN3J2CBUCr8N-194" edge="1">
          <mxGeometry relative="1" as="geometry" />
        </mxCell>
        <mxCell id="T1pnPK0idN3J2CBUCr8N-207" style="edgeStyle=none;rounded=0;orthogonalLoop=1;jettySize=auto;html=1;exitX=0.5;exitY=1;exitDx=0;exitDy=0;entryX=0.5;entryY=0;entryDx=0;entryDy=0;strokeColor=#A8201A;" parent="1" source="T1pnPK0idN3J2CBUCr8N-208" target="T1pnPK0idN3J2CBUCr8N-209" edge="1">
          <mxGeometry relative="1" as="geometry" />
        </mxCell>
        <mxCell id="T1pnPK0idN3J2CBUCr8N-208" value="8" style="ellipse;whiteSpace=wrap;html=1;aspect=fixed;fillColor=#f5f5f5;strokeColor=#666666;gradientColor=#b3b3b3;" parent="1" vertex="1">
          <mxGeometry x="1160" y="2040" width="40" height="40" as="geometry" />
        </mxCell>
        <mxCell id="T1pnPK0idN3J2CBUCr8N-209" value="9" style="ellipse;whiteSpace=wrap;html=1;aspect=fixed;fillColor=#f8cecc;strokeColor=#b85450;gradientColor=#ea6b66;" parent="1" vertex="1">
          <mxGeometry x="1200" y="2120" width="40" height="40" as="geometry" />
        </mxCell>
        <mxCell id="WfEpro9q8Xd2pJnQMilD-3" style="rounded=0;orthogonalLoop=1;jettySize=auto;html=1;exitX=0.5;exitY=1;exitDx=0;exitDy=0;entryX=0.5;entryY=0;entryDx=0;entryDy=0;gradientColor=#ea6b66;fillColor=#f8cecc;strokeColor=#b85450;" edge="1" parent="1" source="T1pnPK0idN3J2CBUCr8N-210" target="WfEpro9q8Xd2pJnQMilD-1">
          <mxGeometry relative="1" as="geometry" />
        </mxCell>
        <mxCell id="T1pnPK0idN3J2CBUCr8N-210" value="14" style="ellipse;whiteSpace=wrap;html=1;aspect=fixed;fillColor=#f5f5f5;strokeColor=#666666;gradientColor=#b3b3b3;" parent="1" vertex="1">
          <mxGeometry x="1320" y="2040" width="40" height="40" as="geometry" />
        </mxCell>
        <mxCell id="T1pnPK0idN3J2CBUCr8N-211" style="edgeStyle=none;rounded=0;orthogonalLoop=1;jettySize=auto;html=1;exitX=0.5;exitY=1;exitDx=0;exitDy=0;entryX=0.5;entryY=0;entryDx=0;entryDy=0;gradientColor=#ea6b66;fillColor=#f8cecc;strokeColor=#b85450;" parent="1" source="T1pnPK0idN3J2CBUCr8N-213" target="T1pnPK0idN3J2CBUCr8N-200" edge="1">
          <mxGeometry relative="1" as="geometry" />
        </mxCell>
        <mxCell id="T1pnPK0idN3J2CBUCr8N-212" style="rounded=0;orthogonalLoop=1;jettySize=auto;html=1;exitX=0.5;exitY=1;exitDx=0;exitDy=0;fontSize=13;entryX=0.5;entryY=0;entryDx=0;entryDy=0;gradientColor=#ea6b66;fillColor=#f8cecc;strokeColor=#b85450;" parent="1" source="T1pnPK0idN3J2CBUCr8N-213" target="T1pnPK0idN3J2CBUCr8N-210" edge="1">
          <mxGeometry relative="1" as="geometry" />
        </mxCell>
        <mxCell id="T1pnPK0idN3J2CBUCr8N-213" value="15" style="ellipse;whiteSpace=wrap;html=1;aspect=fixed;fillColor=#f8cecc;strokeColor=#b85450;gradientColor=#ea6b66;" parent="1" vertex="1">
          <mxGeometry x="1360" y="1960" width="40" height="40" as="geometry" />
        </mxCell>
        <mxCell id="T1pnPK0idN3J2CBUCr8N-214" value="5" style="ellipse;whiteSpace=wrap;html=1;aspect=fixed;fillColor=#f8cecc;strokeColor=#b85450;gradientColor=#ea6b66;" parent="1" vertex="1">
          <mxGeometry x="1120" y="1960" width="40" height="40" as="geometry" />
        </mxCell>
        <mxCell id="T1pnPK0idN3J2CBUCr8N-215" value="3" style="ellipse;whiteSpace=wrap;html=1;aspect=fixed;fillColor=#f5f5f5;strokeColor=#666666;gradientColor=#b3b3b3;" parent="1" vertex="1">
          <mxGeometry x="1080" y="2040" width="40" height="40" as="geometry" />
        </mxCell>
        <mxCell id="T1pnPK0idN3J2CBUCr8N-216" value="8" style="ellipse;whiteSpace=wrap;html=1;aspect=fixed;fillColor=#f5f5f5;strokeColor=#666666;gradientColor=#b3b3b3;" parent="1" vertex="1">
          <mxGeometry x="1160" y="2040" width="40" height="40" as="geometry" />
        </mxCell>
        <mxCell id="WfEpro9q8Xd2pJnQMilD-1" value="13" style="ellipse;whiteSpace=wrap;html=1;aspect=fixed;fillColor=#f8cecc;strokeColor=#b85450;gradientColor=#ea6b66;" vertex="1" parent="1">
          <mxGeometry x="1280" y="2120" width="40" height="40" as="geometry" />
        </mxCell>
        <mxCell id="WfEpro9q8Xd2pJnQMilD-4" value="&lt;font color=&quot;#143642&quot;&gt;&lt;b&gt;删除元素14，记为DE&lt;/b&gt;&lt;/font&gt;" style="shape=callout;whiteSpace=wrap;html=1;perimeter=calloutPerimeter;rounded=1;position2=1;direction=west;" vertex="1" parent="1">
          <mxGeometry x="1350" y="2090" width="120" height="80" as="geometry" />
        </mxCell>
        <mxCell id="WfEpro9q8Xd2pJnQMilD-5" value="" style="html=1;shadow=0;dashed=0;align=center;verticalAlign=middle;shape=mxgraph.arrows2.arrow;dy=0.6;dx=40;notch=0;rounded=1;glass=0;sketch=0;fontColor=#143642;strokeColor=#0F8B8D;fillColor=#FAE5C7;" vertex="1" parent="1">
          <mxGeometry x="1890" y="1990" width="70" height="20" as="geometry" />
        </mxCell>
        <mxCell id="WfEpro9q8Xd2pJnQMilD-6" value="7" style="ellipse;whiteSpace=wrap;html=1;aspect=fixed;fillColor=#f8cecc;strokeColor=#b85450;gradientColor=#ea6b66;" vertex="1" parent="1">
          <mxGeometry x="1560" y="2120" width="40" height="40" as="geometry" />
        </mxCell>
        <mxCell id="WfEpro9q8Xd2pJnQMilD-7" value="3" style="ellipse;whiteSpace=wrap;html=1;aspect=fixed;fillColor=#f5f5f5;strokeColor=#666666;gradientColor=#b3b3b3;" vertex="1" parent="1">
          <mxGeometry x="1520" y="2040" width="40" height="40" as="geometry" />
        </mxCell>
        <mxCell id="WfEpro9q8Xd2pJnQMilD-8" value="8" style="ellipse;whiteSpace=wrap;html=1;aspect=fixed;fillColor=#f5f5f5;strokeColor=#666666;gradientColor=#b3b3b3;" vertex="1" parent="1">
          <mxGeometry x="1600" y="2040" width="40" height="40" as="geometry" />
        </mxCell>
        <mxCell id="WfEpro9q8Xd2pJnQMilD-9" style="edgeStyle=none;rounded=1;sketch=0;orthogonalLoop=1;jettySize=auto;html=1;exitX=0.5;exitY=1;exitDx=0;exitDy=0;entryX=0.5;entryY=0;entryDx=0;entryDy=0;fontColor=#143642;strokeColor=#A8201A;fillColor=#FAE5C7;" edge="1" parent="1" target="WfEpro9q8Xd2pJnQMilD-7">
          <mxGeometry x="1480" y="1880" as="geometry">
            <mxPoint x="1580" y="2000" as="sourcePoint" />
          </mxGeometry>
        </mxCell>
        <mxCell id="WfEpro9q8Xd2pJnQMilD-10" style="edgeStyle=none;rounded=1;sketch=0;orthogonalLoop=1;jettySize=auto;html=1;exitX=0.5;exitY=1;exitDx=0;exitDy=0;entryX=0.5;entryY=0;entryDx=0;entryDy=0;fontColor=#143642;strokeColor=#A8201A;fillColor=#FAE5C7;" edge="1" parent="1" target="WfEpro9q8Xd2pJnQMilD-8">
          <mxGeometry x="1480" y="1880" as="geometry">
            <mxPoint x="1580" y="2000" as="sourcePoint" />
          </mxGeometry>
        </mxCell>
        <mxCell id="WfEpro9q8Xd2pJnQMilD-11" style="rounded=1;sketch=0;orthogonalLoop=1;jettySize=auto;html=1;exitX=0.5;exitY=1;exitDx=0;exitDy=0;entryX=0.5;entryY=0;entryDx=0;entryDy=0;fontColor=#143642;strokeColor=#A8201A;fillColor=#FAE5C7;" edge="1" parent="1" source="WfEpro9q8Xd2pJnQMilD-16" target="WfEpro9q8Xd2pJnQMilD-27">
          <mxGeometry x="1640" y="1880" as="geometry">
            <mxPoint x="1820" y="1920" as="sourcePoint" />
            <mxPoint x="1620" y="1960" as="targetPoint" />
          </mxGeometry>
        </mxCell>
        <mxCell id="WfEpro9q8Xd2pJnQMilD-12" value="16" style="ellipse;whiteSpace=wrap;html=1;aspect=fixed;fillColor=#f5f5f5;strokeColor=#666666;gradientColor=#b3b3b3;" vertex="1" parent="1">
          <mxGeometry x="1840" y="2040" width="40" height="40" as="geometry" />
        </mxCell>
        <mxCell id="WfEpro9q8Xd2pJnQMilD-13" value="3" style="ellipse;whiteSpace=wrap;html=1;aspect=fixed;fillColor=#f5f5f5;strokeColor=#666666;gradientColor=#b3b3b3;" vertex="1" parent="1">
          <mxGeometry x="1520" y="2040" width="40" height="40" as="geometry" />
        </mxCell>
        <mxCell id="WfEpro9q8Xd2pJnQMilD-14" value="8" style="ellipse;whiteSpace=wrap;html=1;aspect=fixed;fillColor=#f5f5f5;strokeColor=#666666;gradientColor=#b3b3b3;" vertex="1" parent="1">
          <mxGeometry x="1600" y="2040" width="40" height="40" as="geometry" />
        </mxCell>
        <mxCell id="WfEpro9q8Xd2pJnQMilD-15" style="edgeStyle=none;rounded=0;orthogonalLoop=1;jettySize=auto;html=1;exitX=0.5;exitY=1;exitDx=0;exitDy=0;entryX=0.5;entryY=0;entryDx=0;entryDy=0;gradientColor=#ea6b66;fillColor=#f8cecc;strokeColor=#b85450;" edge="1" parent="1" source="WfEpro9q8Xd2pJnQMilD-16" target="WfEpro9q8Xd2pJnQMilD-26">
          <mxGeometry relative="1" as="geometry" />
        </mxCell>
        <mxCell id="WfEpro9q8Xd2pJnQMilD-16" value="12" style="ellipse;whiteSpace=wrap;html=1;aspect=fixed;fillColor=#f5f5f5;strokeColor=#666666;gradientColor=#b3b3b3;" vertex="1" parent="1">
          <mxGeometry x="1680" y="1880" width="40" height="40" as="geometry" />
        </mxCell>
        <mxCell id="WfEpro9q8Xd2pJnQMilD-17" value="3" style="ellipse;whiteSpace=wrap;html=1;aspect=fixed;fillColor=#f5f5f5;strokeColor=#666666;gradientColor=#b3b3b3;" vertex="1" parent="1">
          <mxGeometry x="1520" y="2040" width="40" height="40" as="geometry" />
        </mxCell>
        <mxCell id="WfEpro9q8Xd2pJnQMilD-18" style="edgeStyle=none;rounded=0;orthogonalLoop=1;jettySize=auto;html=1;exitX=0.5;exitY=1;exitDx=0;exitDy=0;entryX=0.5;entryY=0;entryDx=0;entryDy=0;strokeColor=#A8201A;" edge="1" parent="1" source="WfEpro9q8Xd2pJnQMilD-20" target="WfEpro9q8Xd2pJnQMilD-6">
          <mxGeometry relative="1" as="geometry" />
        </mxCell>
        <mxCell id="WfEpro9q8Xd2pJnQMilD-19" style="edgeStyle=none;rounded=0;orthogonalLoop=1;jettySize=auto;html=1;exitX=0.5;exitY=1;exitDx=0;exitDy=0;entryX=0.5;entryY=0;entryDx=0;entryDy=0;strokeColor=#A8201A;" edge="1" parent="1" source="WfEpro9q8Xd2pJnQMilD-20" target="WfEpro9q8Xd2pJnQMilD-21">
          <mxGeometry relative="1" as="geometry" />
        </mxCell>
        <mxCell id="WfEpro9q8Xd2pJnQMilD-20" value="8" style="ellipse;whiteSpace=wrap;html=1;aspect=fixed;fillColor=#f5f5f5;strokeColor=#666666;gradientColor=#b3b3b3;" vertex="1" parent="1">
          <mxGeometry x="1600" y="2040" width="40" height="40" as="geometry" />
        </mxCell>
        <mxCell id="WfEpro9q8Xd2pJnQMilD-21" value="9" style="ellipse;whiteSpace=wrap;html=1;aspect=fixed;fillColor=#f8cecc;strokeColor=#b85450;gradientColor=#ea6b66;" vertex="1" parent="1">
          <mxGeometry x="1640" y="2120" width="40" height="40" as="geometry" />
        </mxCell>
        <mxCell id="WfEpro9q8Xd2pJnQMilD-22" style="rounded=0;orthogonalLoop=1;jettySize=auto;html=1;exitX=0.5;exitY=1;exitDx=0;exitDy=0;entryX=0.5;entryY=0;entryDx=0;entryDy=0;gradientColor=#ea6b66;fillColor=#f8cecc;strokeColor=#b85450;" edge="1" parent="1" source="WfEpro9q8Xd2pJnQMilD-23" target="WfEpro9q8Xd2pJnQMilD-30">
          <mxGeometry relative="1" as="geometry" />
        </mxCell>
        <mxCell id="WfEpro9q8Xd2pJnQMilD-23" value="14" style="ellipse;whiteSpace=wrap;html=1;aspect=fixed;fillColor=#f5f5f5;strokeColor=#666666;gradientColor=#b3b3b3;" vertex="1" parent="1">
          <mxGeometry x="1760" y="2040" width="40" height="40" as="geometry" />
        </mxCell>
        <mxCell id="WfEpro9q8Xd2pJnQMilD-24" style="edgeStyle=none;rounded=0;orthogonalLoop=1;jettySize=auto;html=1;exitX=0.5;exitY=1;exitDx=0;exitDy=0;entryX=0.5;entryY=0;entryDx=0;entryDy=0;gradientColor=#ea6b66;fillColor=#f8cecc;strokeColor=#b85450;" edge="1" parent="1" source="WfEpro9q8Xd2pJnQMilD-26" target="WfEpro9q8Xd2pJnQMilD-12">
          <mxGeometry relative="1" as="geometry" />
        </mxCell>
        <mxCell id="WfEpro9q8Xd2pJnQMilD-25" style="rounded=0;orthogonalLoop=1;jettySize=auto;html=1;exitX=0.5;exitY=1;exitDx=0;exitDy=0;fontSize=13;entryX=0.5;entryY=0;entryDx=0;entryDy=0;gradientColor=#ea6b66;fillColor=#f8cecc;strokeColor=#b85450;" edge="1" parent="1" source="WfEpro9q8Xd2pJnQMilD-26" target="WfEpro9q8Xd2pJnQMilD-23">
          <mxGeometry relative="1" as="geometry" />
        </mxCell>
        <mxCell id="WfEpro9q8Xd2pJnQMilD-26" value="15" style="ellipse;whiteSpace=wrap;html=1;aspect=fixed;fillColor=#f8cecc;strokeColor=#b85450;gradientColor=#ea6b66;" vertex="1" parent="1">
          <mxGeometry x="1800" y="1960" width="40" height="40" as="geometry" />
        </mxCell>
        <mxCell id="WfEpro9q8Xd2pJnQMilD-27" value="5" style="ellipse;whiteSpace=wrap;html=1;aspect=fixed;fillColor=#f8cecc;strokeColor=#b85450;gradientColor=#ea6b66;" vertex="1" parent="1">
          <mxGeometry x="1560" y="1960" width="40" height="40" as="geometry" />
        </mxCell>
        <mxCell id="WfEpro9q8Xd2pJnQMilD-28" value="3" style="ellipse;whiteSpace=wrap;html=1;aspect=fixed;fillColor=#f5f5f5;strokeColor=#666666;gradientColor=#b3b3b3;" vertex="1" parent="1">
          <mxGeometry x="1520" y="2040" width="40" height="40" as="geometry" />
        </mxCell>
        <mxCell id="WfEpro9q8Xd2pJnQMilD-29" value="8" style="ellipse;whiteSpace=wrap;html=1;aspect=fixed;fillColor=#f5f5f5;strokeColor=#666666;gradientColor=#b3b3b3;" vertex="1" parent="1">
          <mxGeometry x="1600" y="2040" width="40" height="40" as="geometry" />
        </mxCell>
        <mxCell id="WfEpro9q8Xd2pJnQMilD-30" value="13" style="ellipse;whiteSpace=wrap;html=1;aspect=fixed;fillColor=#f8cecc;strokeColor=#b85450;gradientColor=#ea6b66;" vertex="1" parent="1">
          <mxGeometry x="1720" y="2120" width="40" height="40" as="geometry" />
        </mxCell>
        <mxCell id="WfEpro9q8Xd2pJnQMilD-32" value="&lt;font color=&quot;#143642&quot;&gt;&lt;b&gt;replacement变量（记为R）指向DE的左子节点&lt;/b&gt;&lt;/font&gt;" style="shape=callout;whiteSpace=wrap;html=1;perimeter=calloutPerimeter;rounded=1;position2=0.16;direction=west;size=30;position=0.6;" vertex="1" parent="1">
          <mxGeometry x="1600" y="2160" width="155" height="90" as="geometry" />
        </mxCell>
        <mxCell id="WfEpro9q8Xd2pJnQMilD-35" style="edgeStyle=none;rounded=0;orthogonalLoop=1;jettySize=auto;html=1;exitX=0.5;exitY=0;exitDx=0;exitDy=0;entryX=0.5;entryY=1;entryDx=0;entryDy=0;gradientColor=#ea6b66;fillColor=#f8cecc;strokeColor=#b85450;dashed=1;" edge="1" parent="1" source="WfEpro9q8Xd2pJnQMilD-33" target="WfEpro9q8Xd2pJnQMilD-30">
          <mxGeometry relative="1" as="geometry" />
        </mxCell>
        <mxCell id="WfEpro9q8Xd2pJnQMilD-33" value="R" style="ellipse;whiteSpace=wrap;html=1;aspect=fixed;fillColor=#d5e8d4;strokeColor=#82b366;fontSize=8;gradientColor=#97d077;" vertex="1" parent="1">
          <mxGeometry x="1800" y="2200" width="40" height="40" as="geometry" />
        </mxCell>
        <mxCell id="WfEpro9q8Xd2pJnQMilD-36" value="" style="html=1;shadow=0;dashed=0;align=center;verticalAlign=middle;shape=mxgraph.arrows2.arrow;dy=0.6;dx=40;notch=0;rounded=1;glass=0;sketch=0;fontColor=#143642;strokeColor=#0F8B8D;fillColor=#FAE5C7;" vertex="1" parent="1">
          <mxGeometry x="2340" y="1990" width="70" height="20" as="geometry" />
        </mxCell>
        <mxCell id="WfEpro9q8Xd2pJnQMilD-37" value="7" style="ellipse;whiteSpace=wrap;html=1;aspect=fixed;fillColor=#f8cecc;strokeColor=#b85450;gradientColor=#ea6b66;" vertex="1" parent="1">
          <mxGeometry x="2000" y="2120" width="40" height="40" as="geometry" />
        </mxCell>
        <mxCell id="WfEpro9q8Xd2pJnQMilD-38" value="3" style="ellipse;whiteSpace=wrap;html=1;aspect=fixed;fillColor=#f5f5f5;strokeColor=#666666;gradientColor=#b3b3b3;" vertex="1" parent="1">
          <mxGeometry x="1960" y="2040" width="40" height="40" as="geometry" />
        </mxCell>
        <mxCell id="WfEpro9q8Xd2pJnQMilD-39" value="8" style="ellipse;whiteSpace=wrap;html=1;aspect=fixed;fillColor=#f5f5f5;strokeColor=#666666;gradientColor=#b3b3b3;" vertex="1" parent="1">
          <mxGeometry x="2040" y="2040" width="40" height="40" as="geometry" />
        </mxCell>
        <mxCell id="WfEpro9q8Xd2pJnQMilD-40" style="edgeStyle=none;rounded=1;sketch=0;orthogonalLoop=1;jettySize=auto;html=1;exitX=0.5;exitY=1;exitDx=0;exitDy=0;entryX=0.5;entryY=0;entryDx=0;entryDy=0;fontColor=#143642;strokeColor=#A8201A;fillColor=#FAE5C7;" edge="1" parent="1" target="WfEpro9q8Xd2pJnQMilD-38">
          <mxGeometry x="1920" y="1880" as="geometry">
            <mxPoint x="2020" y="2000" as="sourcePoint" />
          </mxGeometry>
        </mxCell>
        <mxCell id="WfEpro9q8Xd2pJnQMilD-41" style="edgeStyle=none;rounded=1;sketch=0;orthogonalLoop=1;jettySize=auto;html=1;exitX=0.5;exitY=1;exitDx=0;exitDy=0;entryX=0.5;entryY=0;entryDx=0;entryDy=0;fontColor=#143642;strokeColor=#A8201A;fillColor=#FAE5C7;" edge="1" parent="1" target="WfEpro9q8Xd2pJnQMilD-39">
          <mxGeometry x="1920" y="1880" as="geometry">
            <mxPoint x="2020" y="2000" as="sourcePoint" />
          </mxGeometry>
        </mxCell>
        <mxCell id="WfEpro9q8Xd2pJnQMilD-42" style="rounded=1;sketch=0;orthogonalLoop=1;jettySize=auto;html=1;exitX=0.5;exitY=1;exitDx=0;exitDy=0;entryX=0.5;entryY=0;entryDx=0;entryDy=0;fontColor=#143642;strokeColor=#A8201A;fillColor=#FAE5C7;" edge="1" parent="1" source="WfEpro9q8Xd2pJnQMilD-47" target="WfEpro9q8Xd2pJnQMilD-58">
          <mxGeometry x="2080" y="1880" as="geometry">
            <mxPoint x="2260" y="1920" as="sourcePoint" />
            <mxPoint x="2060" y="1960" as="targetPoint" />
          </mxGeometry>
        </mxCell>
        <mxCell id="WfEpro9q8Xd2pJnQMilD-43" value="16" style="ellipse;whiteSpace=wrap;html=1;aspect=fixed;fillColor=#f5f5f5;strokeColor=#666666;gradientColor=#b3b3b3;" vertex="1" parent="1">
          <mxGeometry x="2280" y="2040" width="40" height="40" as="geometry" />
        </mxCell>
        <mxCell id="WfEpro9q8Xd2pJnQMilD-44" value="3" style="ellipse;whiteSpace=wrap;html=1;aspect=fixed;fillColor=#f5f5f5;strokeColor=#666666;gradientColor=#b3b3b3;" vertex="1" parent="1">
          <mxGeometry x="1960" y="2040" width="40" height="40" as="geometry" />
        </mxCell>
        <mxCell id="WfEpro9q8Xd2pJnQMilD-45" value="8" style="ellipse;whiteSpace=wrap;html=1;aspect=fixed;fillColor=#f5f5f5;strokeColor=#666666;gradientColor=#b3b3b3;" vertex="1" parent="1">
          <mxGeometry x="2040" y="2040" width="40" height="40" as="geometry" />
        </mxCell>
        <mxCell id="WfEpro9q8Xd2pJnQMilD-46" style="edgeStyle=none;rounded=0;orthogonalLoop=1;jettySize=auto;html=1;exitX=0.5;exitY=1;exitDx=0;exitDy=0;entryX=0.5;entryY=0;entryDx=0;entryDy=0;gradientColor=#ea6b66;fillColor=#f8cecc;strokeColor=#b85450;" edge="1" parent="1" source="WfEpro9q8Xd2pJnQMilD-47" target="WfEpro9q8Xd2pJnQMilD-57">
          <mxGeometry relative="1" as="geometry" />
        </mxCell>
        <mxCell id="WfEpro9q8Xd2pJnQMilD-47" value="12" style="ellipse;whiteSpace=wrap;html=1;aspect=fixed;fillColor=#f5f5f5;strokeColor=#666666;gradientColor=#b3b3b3;" vertex="1" parent="1">
          <mxGeometry x="2120" y="1880" width="40" height="40" as="geometry" />
        </mxCell>
        <mxCell id="WfEpro9q8Xd2pJnQMilD-48" value="3" style="ellipse;whiteSpace=wrap;html=1;aspect=fixed;fillColor=#f5f5f5;strokeColor=#666666;gradientColor=#b3b3b3;" vertex="1" parent="1">
          <mxGeometry x="1960" y="2040" width="40" height="40" as="geometry" />
        </mxCell>
        <mxCell id="WfEpro9q8Xd2pJnQMilD-49" style="edgeStyle=none;rounded=0;orthogonalLoop=1;jettySize=auto;html=1;exitX=0.5;exitY=1;exitDx=0;exitDy=0;entryX=0.5;entryY=0;entryDx=0;entryDy=0;strokeColor=#A8201A;" edge="1" parent="1" source="WfEpro9q8Xd2pJnQMilD-51" target="WfEpro9q8Xd2pJnQMilD-37">
          <mxGeometry relative="1" as="geometry" />
        </mxCell>
        <mxCell id="WfEpro9q8Xd2pJnQMilD-50" style="edgeStyle=none;rounded=0;orthogonalLoop=1;jettySize=auto;html=1;exitX=0.5;exitY=1;exitDx=0;exitDy=0;entryX=0.5;entryY=0;entryDx=0;entryDy=0;strokeColor=#A8201A;" edge="1" parent="1" source="WfEpro9q8Xd2pJnQMilD-51" target="WfEpro9q8Xd2pJnQMilD-52">
          <mxGeometry relative="1" as="geometry" />
        </mxCell>
        <mxCell id="WfEpro9q8Xd2pJnQMilD-51" value="8" style="ellipse;whiteSpace=wrap;html=1;aspect=fixed;fillColor=#f5f5f5;strokeColor=#666666;gradientColor=#b3b3b3;" vertex="1" parent="1">
          <mxGeometry x="2040" y="2040" width="40" height="40" as="geometry" />
        </mxCell>
        <mxCell id="WfEpro9q8Xd2pJnQMilD-52" value="9" style="ellipse;whiteSpace=wrap;html=1;aspect=fixed;fillColor=#f8cecc;strokeColor=#b85450;gradientColor=#ea6b66;" vertex="1" parent="1">
          <mxGeometry x="2080" y="2120" width="40" height="40" as="geometry" />
        </mxCell>
        <mxCell id="WfEpro9q8Xd2pJnQMilD-53" style="rounded=0;orthogonalLoop=1;jettySize=auto;html=1;exitX=0.5;exitY=1;exitDx=0;exitDy=0;entryX=0.5;entryY=0;entryDx=0;entryDy=0;gradientColor=#ea6b66;fillColor=#f8cecc;strokeColor=#b85450;" edge="1" parent="1" source="WfEpro9q8Xd2pJnQMilD-54" target="WfEpro9q8Xd2pJnQMilD-61">
          <mxGeometry relative="1" as="geometry" />
        </mxCell>
        <mxCell id="WfEpro9q8Xd2pJnQMilD-54" value="14" style="ellipse;whiteSpace=wrap;html=1;aspect=fixed;fillColor=#f5f5f5;strokeColor=#666666;gradientColor=#b3b3b3;" vertex="1" parent="1">
          <mxGeometry x="2200" y="2040" width="40" height="40" as="geometry" />
        </mxCell>
        <mxCell id="WfEpro9q8Xd2pJnQMilD-55" style="edgeStyle=none;rounded=0;orthogonalLoop=1;jettySize=auto;html=1;exitX=0.5;exitY=1;exitDx=0;exitDy=0;entryX=0.5;entryY=0;entryDx=0;entryDy=0;gradientColor=#ea6b66;fillColor=#f8cecc;strokeColor=#b85450;" edge="1" parent="1" source="WfEpro9q8Xd2pJnQMilD-57" target="WfEpro9q8Xd2pJnQMilD-43">
          <mxGeometry relative="1" as="geometry" />
        </mxCell>
        <mxCell id="WfEpro9q8Xd2pJnQMilD-56" style="rounded=0;orthogonalLoop=1;jettySize=auto;html=1;exitX=0.5;exitY=1;exitDx=0;exitDy=0;fontSize=13;entryX=0.5;entryY=0;entryDx=0;entryDy=0;gradientColor=#ea6b66;fillColor=#f8cecc;strokeColor=#b85450;" edge="1" parent="1" source="WfEpro9q8Xd2pJnQMilD-57" target="WfEpro9q8Xd2pJnQMilD-54">
          <mxGeometry relative="1" as="geometry" />
        </mxCell>
        <mxCell id="WfEpro9q8Xd2pJnQMilD-57" value="15" style="ellipse;whiteSpace=wrap;html=1;aspect=fixed;fillColor=#f8cecc;strokeColor=#b85450;gradientColor=#ea6b66;" vertex="1" parent="1">
          <mxGeometry x="2240" y="1960" width="40" height="40" as="geometry" />
        </mxCell>
        <mxCell id="WfEpro9q8Xd2pJnQMilD-58" value="5" style="ellipse;whiteSpace=wrap;html=1;aspect=fixed;fillColor=#f8cecc;strokeColor=#b85450;gradientColor=#ea6b66;" vertex="1" parent="1">
          <mxGeometry x="2000" y="1960" width="40" height="40" as="geometry" />
        </mxCell>
        <mxCell id="WfEpro9q8Xd2pJnQMilD-59" value="3" style="ellipse;whiteSpace=wrap;html=1;aspect=fixed;fillColor=#f5f5f5;strokeColor=#666666;gradientColor=#b3b3b3;" vertex="1" parent="1">
          <mxGeometry x="1960" y="2040" width="40" height="40" as="geometry" />
        </mxCell>
        <mxCell id="WfEpro9q8Xd2pJnQMilD-60" value="8" style="ellipse;whiteSpace=wrap;html=1;aspect=fixed;fillColor=#f5f5f5;strokeColor=#666666;gradientColor=#b3b3b3;" vertex="1" parent="1">
          <mxGeometry x="2040" y="2040" width="40" height="40" as="geometry" />
        </mxCell>
        <mxCell id="WfEpro9q8Xd2pJnQMilD-61" value="13" style="ellipse;whiteSpace=wrap;html=1;aspect=fixed;fillColor=#f8cecc;strokeColor=#b85450;gradientColor=#ea6b66;" vertex="1" parent="1">
          <mxGeometry x="2160" y="2120" width="40" height="40" as="geometry" />
        </mxCell>
        <mxCell id="WfEpro9q8Xd2pJnQMilD-62" value="&lt;font color=&quot;#143642&quot;&gt;&lt;b&gt;replacement变量（记为R）指向DE的左子节点&lt;/b&gt;&lt;/font&gt;" style="shape=callout;whiteSpace=wrap;html=1;perimeter=calloutPerimeter;rounded=1;position2=0.16;direction=west;size=30;position=0.6;" vertex="1" parent="1">
          <mxGeometry x="2040" y="2160" width="155" height="90" as="geometry" />
        </mxCell>
        <mxCell id="WfEpro9q8Xd2pJnQMilD-63" style="edgeStyle=none;rounded=0;orthogonalLoop=1;jettySize=auto;html=1;exitX=0.5;exitY=0;exitDx=0;exitDy=0;entryX=0.5;entryY=1;entryDx=0;entryDy=0;gradientColor=#ea6b66;fillColor=#f8cecc;strokeColor=#b85450;dashed=1;" edge="1" parent="1" source="WfEpro9q8Xd2pJnQMilD-64" target="WfEpro9q8Xd2pJnQMilD-61">
          <mxGeometry relative="1" as="geometry" />
        </mxCell>
        <mxCell id="WfEpro9q8Xd2pJnQMilD-65" style="edgeStyle=orthogonalEdgeStyle;rounded=0;orthogonalLoop=1;jettySize=auto;html=1;exitX=0.5;exitY=0;exitDx=0;exitDy=0;entryX=1;entryY=0.5;entryDx=0;entryDy=0;dashed=1;gradientColor=#ea6b66;fillColor=#f8cecc;strokeColor=#b85450;" edge="1" parent="1" source="WfEpro9q8Xd2pJnQMilD-64" target="WfEpro9q8Xd2pJnQMilD-57">
          <mxGeometry relative="1" as="geometry">
            <Array as="points">
              <mxPoint x="2260" y="2110" />
              <mxPoint x="2330" y="2110" />
              <mxPoint x="2330" y="1980" />
            </Array>
          </mxGeometry>
        </mxCell>
        <mxCell id="WfEpro9q8Xd2pJnQMilD-66" value="&lt;font style=&quot;font-size: 13px&quot;&gt;parent&lt;/font&gt;" style="edgeLabel;html=1;align=center;verticalAlign=middle;resizable=0;points=[];fontStyle=1" vertex="1" connectable="0" parent="WfEpro9q8Xd2pJnQMilD-65">
          <mxGeometry x="-0.132" y="4" relative="1" as="geometry">
            <mxPoint x="-28" y="4" as="offset" />
          </mxGeometry>
        </mxCell>
        <mxCell id="WfEpro9q8Xd2pJnQMilD-64" value="R" style="ellipse;whiteSpace=wrap;html=1;aspect=fixed;fillColor=#d5e8d4;strokeColor=#82b366;fontSize=8;gradientColor=#97d077;" vertex="1" parent="1">
          <mxGeometry x="2240" y="2200" width="40" height="40" as="geometry" />
        </mxCell>
        <mxCell id="WfEpro9q8Xd2pJnQMilD-68" value="&lt;font color=&quot;#143642&quot;&gt;&lt;b&gt;R的父元素指向DE的父元素&lt;/b&gt;&lt;/font&gt;" style="shape=callout;whiteSpace=wrap;html=1;perimeter=calloutPerimeter;rounded=1;position2=0;direction=east;" vertex="1" parent="1">
          <mxGeometry x="2300" y="2140" width="140" height="80" as="geometry" />
        </mxCell>
        <mxCell id="WfEpro9q8Xd2pJnQMilD-70" value="7" style="ellipse;whiteSpace=wrap;html=1;aspect=fixed;fillColor=#f8cecc;strokeColor=#b85450;gradientColor=#ea6b66;" vertex="1" parent="1">
          <mxGeometry x="2480" y="2120" width="40" height="40" as="geometry" />
        </mxCell>
        <mxCell id="WfEpro9q8Xd2pJnQMilD-71" value="3" style="ellipse;whiteSpace=wrap;html=1;aspect=fixed;fillColor=#f5f5f5;strokeColor=#666666;gradientColor=#b3b3b3;" vertex="1" parent="1">
          <mxGeometry x="2440" y="2040" width="40" height="40" as="geometry" />
        </mxCell>
        <mxCell id="WfEpro9q8Xd2pJnQMilD-72" value="8" style="ellipse;whiteSpace=wrap;html=1;aspect=fixed;fillColor=#f5f5f5;strokeColor=#666666;gradientColor=#b3b3b3;" vertex="1" parent="1">
          <mxGeometry x="2520" y="2040" width="40" height="40" as="geometry" />
        </mxCell>
        <mxCell id="WfEpro9q8Xd2pJnQMilD-73" style="edgeStyle=none;rounded=1;sketch=0;orthogonalLoop=1;jettySize=auto;html=1;exitX=0.5;exitY=1;exitDx=0;exitDy=0;entryX=0.5;entryY=0;entryDx=0;entryDy=0;fontColor=#143642;strokeColor=#A8201A;fillColor=#FAE5C7;" edge="1" parent="1" target="WfEpro9q8Xd2pJnQMilD-71">
          <mxGeometry x="2400" y="1880" as="geometry">
            <mxPoint x="2500" y="2000" as="sourcePoint" />
          </mxGeometry>
        </mxCell>
        <mxCell id="WfEpro9q8Xd2pJnQMilD-74" style="edgeStyle=none;rounded=1;sketch=0;orthogonalLoop=1;jettySize=auto;html=1;exitX=0.5;exitY=1;exitDx=0;exitDy=0;entryX=0.5;entryY=0;entryDx=0;entryDy=0;fontColor=#143642;strokeColor=#A8201A;fillColor=#FAE5C7;" edge="1" parent="1" target="WfEpro9q8Xd2pJnQMilD-72">
          <mxGeometry x="2400" y="1880" as="geometry">
            <mxPoint x="2500" y="2000" as="sourcePoint" />
          </mxGeometry>
        </mxCell>
        <mxCell id="WfEpro9q8Xd2pJnQMilD-75" style="rounded=1;sketch=0;orthogonalLoop=1;jettySize=auto;html=1;exitX=0.5;exitY=1;exitDx=0;exitDy=0;entryX=0.5;entryY=0;entryDx=0;entryDy=0;fontColor=#143642;strokeColor=#A8201A;fillColor=#FAE5C7;" edge="1" parent="1" source="WfEpro9q8Xd2pJnQMilD-80" target="WfEpro9q8Xd2pJnQMilD-91">
          <mxGeometry x="2560" y="1880" as="geometry">
            <mxPoint x="2740" y="1920" as="sourcePoint" />
            <mxPoint x="2540" y="1960" as="targetPoint" />
          </mxGeometry>
        </mxCell>
        <mxCell id="WfEpro9q8Xd2pJnQMilD-76" value="16" style="ellipse;whiteSpace=wrap;html=1;aspect=fixed;fillColor=#f5f5f5;strokeColor=#666666;gradientColor=#b3b3b3;" vertex="1" parent="1">
          <mxGeometry x="2760" y="2040" width="40" height="40" as="geometry" />
        </mxCell>
        <mxCell id="WfEpro9q8Xd2pJnQMilD-77" value="3" style="ellipse;whiteSpace=wrap;html=1;aspect=fixed;fillColor=#f5f5f5;strokeColor=#666666;gradientColor=#b3b3b3;" vertex="1" parent="1">
          <mxGeometry x="2440" y="2040" width="40" height="40" as="geometry" />
        </mxCell>
        <mxCell id="WfEpro9q8Xd2pJnQMilD-78" value="8" style="ellipse;whiteSpace=wrap;html=1;aspect=fixed;fillColor=#f5f5f5;strokeColor=#666666;gradientColor=#b3b3b3;" vertex="1" parent="1">
          <mxGeometry x="2520" y="2040" width="40" height="40" as="geometry" />
        </mxCell>
        <mxCell id="WfEpro9q8Xd2pJnQMilD-79" style="edgeStyle=none;rounded=0;orthogonalLoop=1;jettySize=auto;html=1;exitX=0.5;exitY=1;exitDx=0;exitDy=0;entryX=0.5;entryY=0;entryDx=0;entryDy=0;gradientColor=#ea6b66;fillColor=#f8cecc;strokeColor=#b85450;" edge="1" parent="1" source="WfEpro9q8Xd2pJnQMilD-80" target="WfEpro9q8Xd2pJnQMilD-90">
          <mxGeometry relative="1" as="geometry" />
        </mxCell>
        <mxCell id="WfEpro9q8Xd2pJnQMilD-80" value="12" style="ellipse;whiteSpace=wrap;html=1;aspect=fixed;fillColor=#f5f5f5;strokeColor=#666666;gradientColor=#b3b3b3;" vertex="1" parent="1">
          <mxGeometry x="2600" y="1880" width="40" height="40" as="geometry" />
        </mxCell>
        <mxCell id="WfEpro9q8Xd2pJnQMilD-81" value="3" style="ellipse;whiteSpace=wrap;html=1;aspect=fixed;fillColor=#f5f5f5;strokeColor=#666666;gradientColor=#b3b3b3;" vertex="1" parent="1">
          <mxGeometry x="2440" y="2040" width="40" height="40" as="geometry" />
        </mxCell>
        <mxCell id="WfEpro9q8Xd2pJnQMilD-82" style="edgeStyle=none;rounded=0;orthogonalLoop=1;jettySize=auto;html=1;exitX=0.5;exitY=1;exitDx=0;exitDy=0;entryX=0.5;entryY=0;entryDx=0;entryDy=0;strokeColor=#A8201A;" edge="1" parent="1" source="WfEpro9q8Xd2pJnQMilD-84" target="WfEpro9q8Xd2pJnQMilD-70">
          <mxGeometry relative="1" as="geometry" />
        </mxCell>
        <mxCell id="WfEpro9q8Xd2pJnQMilD-83" style="edgeStyle=none;rounded=0;orthogonalLoop=1;jettySize=auto;html=1;exitX=0.5;exitY=1;exitDx=0;exitDy=0;entryX=0.5;entryY=0;entryDx=0;entryDy=0;strokeColor=#A8201A;" edge="1" parent="1" source="WfEpro9q8Xd2pJnQMilD-84" target="WfEpro9q8Xd2pJnQMilD-85">
          <mxGeometry relative="1" as="geometry" />
        </mxCell>
        <mxCell id="WfEpro9q8Xd2pJnQMilD-84" value="8" style="ellipse;whiteSpace=wrap;html=1;aspect=fixed;fillColor=#f5f5f5;strokeColor=#666666;gradientColor=#b3b3b3;" vertex="1" parent="1">
          <mxGeometry x="2520" y="2040" width="40" height="40" as="geometry" />
        </mxCell>
        <mxCell id="WfEpro9q8Xd2pJnQMilD-85" value="9" style="ellipse;whiteSpace=wrap;html=1;aspect=fixed;fillColor=#f8cecc;strokeColor=#b85450;gradientColor=#ea6b66;" vertex="1" parent="1">
          <mxGeometry x="2560" y="2120" width="40" height="40" as="geometry" />
        </mxCell>
        <mxCell id="WfEpro9q8Xd2pJnQMilD-86" style="rounded=0;orthogonalLoop=1;jettySize=auto;html=1;exitX=0.5;exitY=1;exitDx=0;exitDy=0;entryX=0.5;entryY=0;entryDx=0;entryDy=0;gradientColor=#ea6b66;fillColor=#f8cecc;strokeColor=#b85450;" edge="1" parent="1" source="WfEpro9q8Xd2pJnQMilD-87" target="WfEpro9q8Xd2pJnQMilD-94">
          <mxGeometry relative="1" as="geometry" />
        </mxCell>
        <mxCell id="WfEpro9q8Xd2pJnQMilD-87" value="14" style="ellipse;whiteSpace=wrap;html=1;aspect=fixed;fillColor=#f5f5f5;strokeColor=#666666;gradientColor=#b3b3b3;" vertex="1" parent="1">
          <mxGeometry x="2680" y="2040" width="40" height="40" as="geometry" />
        </mxCell>
        <mxCell id="WfEpro9q8Xd2pJnQMilD-88" style="edgeStyle=none;rounded=0;orthogonalLoop=1;jettySize=auto;html=1;exitX=0.5;exitY=1;exitDx=0;exitDy=0;entryX=0.5;entryY=0;entryDx=0;entryDy=0;gradientColor=#ea6b66;fillColor=#f8cecc;strokeColor=#b85450;" edge="1" parent="1" source="WfEpro9q8Xd2pJnQMilD-90" target="WfEpro9q8Xd2pJnQMilD-76">
          <mxGeometry relative="1" as="geometry" />
        </mxCell>
        <mxCell id="WfEpro9q8Xd2pJnQMilD-89" style="rounded=0;orthogonalLoop=1;jettySize=auto;html=1;exitX=0.5;exitY=1;exitDx=0;exitDy=0;fontSize=13;entryX=0.5;entryY=0;entryDx=0;entryDy=0;gradientColor=#ea6b66;fillColor=#f8cecc;strokeColor=#b85450;" edge="1" parent="1" source="WfEpro9q8Xd2pJnQMilD-90" target="WfEpro9q8Xd2pJnQMilD-87">
          <mxGeometry relative="1" as="geometry" />
        </mxCell>
        <mxCell id="WfEpro9q8Xd2pJnQMilD-102" style="edgeStyle=orthogonalEdgeStyle;rounded=0;orthogonalLoop=1;jettySize=auto;html=1;exitX=0.5;exitY=1;exitDx=0;exitDy=0;entryX=0;entryY=0.5;entryDx=0;entryDy=0;dashed=1;gradientColor=#ea6b66;fillColor=#f8cecc;strokeColor=#b85450;" edge="1" parent="1" source="WfEpro9q8Xd2pJnQMilD-90" target="WfEpro9q8Xd2pJnQMilD-99">
          <mxGeometry relative="1" as="geometry">
            <Array as="points">
              <mxPoint x="2620" y="2000" />
              <mxPoint x="2620" y="2220" />
            </Array>
          </mxGeometry>
        </mxCell>
        <mxCell id="WfEpro9q8Xd2pJnQMilD-103" value="&lt;font style=&quot;font-size: 13px&quot;&gt;&lt;b&gt;left&lt;/b&gt;&lt;/font&gt;" style="edgeLabel;html=1;align=center;verticalAlign=middle;resizable=0;points=[];" vertex="1" connectable="0" parent="WfEpro9q8Xd2pJnQMilD-102">
          <mxGeometry x="-0.0864" relative="1" as="geometry">
            <mxPoint as="offset" />
          </mxGeometry>
        </mxCell>
        <mxCell id="WfEpro9q8Xd2pJnQMilD-90" value="15" style="ellipse;whiteSpace=wrap;html=1;aspect=fixed;fillColor=#f8cecc;strokeColor=#b85450;gradientColor=#ea6b66;" vertex="1" parent="1">
          <mxGeometry x="2720" y="1960" width="40" height="40" as="geometry" />
        </mxCell>
        <mxCell id="WfEpro9q8Xd2pJnQMilD-91" value="5" style="ellipse;whiteSpace=wrap;html=1;aspect=fixed;fillColor=#f8cecc;strokeColor=#b85450;gradientColor=#ea6b66;" vertex="1" parent="1">
          <mxGeometry x="2480" y="1960" width="40" height="40" as="geometry" />
        </mxCell>
        <mxCell id="WfEpro9q8Xd2pJnQMilD-92" value="3" style="ellipse;whiteSpace=wrap;html=1;aspect=fixed;fillColor=#f5f5f5;strokeColor=#666666;gradientColor=#b3b3b3;" vertex="1" parent="1">
          <mxGeometry x="2440" y="2040" width="40" height="40" as="geometry" />
        </mxCell>
        <mxCell id="WfEpro9q8Xd2pJnQMilD-93" value="8" style="ellipse;whiteSpace=wrap;html=1;aspect=fixed;fillColor=#f5f5f5;strokeColor=#666666;gradientColor=#b3b3b3;" vertex="1" parent="1">
          <mxGeometry x="2520" y="2040" width="40" height="40" as="geometry" />
        </mxCell>
        <mxCell id="WfEpro9q8Xd2pJnQMilD-94" value="13" style="ellipse;whiteSpace=wrap;html=1;aspect=fixed;fillColor=#f8cecc;strokeColor=#b85450;gradientColor=#ea6b66;" vertex="1" parent="1">
          <mxGeometry x="2640" y="2120" width="40" height="40" as="geometry" />
        </mxCell>
        <mxCell id="WfEpro9q8Xd2pJnQMilD-96" style="edgeStyle=none;rounded=0;orthogonalLoop=1;jettySize=auto;html=1;exitX=0.5;exitY=0;exitDx=0;exitDy=0;entryX=0.5;entryY=1;entryDx=0;entryDy=0;gradientColor=#ea6b66;fillColor=#f8cecc;strokeColor=#b85450;dashed=1;" edge="1" parent="1" source="WfEpro9q8Xd2pJnQMilD-99" target="WfEpro9q8Xd2pJnQMilD-94">
          <mxGeometry relative="1" as="geometry" />
        </mxCell>
        <mxCell id="WfEpro9q8Xd2pJnQMilD-97" style="edgeStyle=orthogonalEdgeStyle;rounded=0;orthogonalLoop=1;jettySize=auto;html=1;exitX=0.5;exitY=0;exitDx=0;exitDy=0;entryX=1;entryY=0.5;entryDx=0;entryDy=0;dashed=1;gradientColor=#ea6b66;fillColor=#f8cecc;strokeColor=#b85450;" edge="1" parent="1" source="WfEpro9q8Xd2pJnQMilD-99" target="WfEpro9q8Xd2pJnQMilD-90">
          <mxGeometry relative="1" as="geometry">
            <Array as="points">
              <mxPoint x="2740" y="2110" />
              <mxPoint x="2810" y="2110" />
              <mxPoint x="2810" y="1980" />
            </Array>
          </mxGeometry>
        </mxCell>
        <mxCell id="WfEpro9q8Xd2pJnQMilD-98" value="&lt;font style=&quot;font-size: 13px&quot;&gt;parent&lt;/font&gt;" style="edgeLabel;html=1;align=center;verticalAlign=middle;resizable=0;points=[];fontStyle=1" vertex="1" connectable="0" parent="WfEpro9q8Xd2pJnQMilD-97">
          <mxGeometry x="-0.132" y="4" relative="1" as="geometry">
            <mxPoint x="-28" y="4" as="offset" />
          </mxGeometry>
        </mxCell>
        <mxCell id="WfEpro9q8Xd2pJnQMilD-99" value="R" style="ellipse;whiteSpace=wrap;html=1;aspect=fixed;fillColor=#d5e8d4;strokeColor=#82b366;fontSize=8;gradientColor=#97d077;" vertex="1" parent="1">
          <mxGeometry x="2720" y="2200" width="40" height="40" as="geometry" />
        </mxCell>
        <mxCell id="WfEpro9q8Xd2pJnQMilD-101" value="&lt;font color=&quot;#143642&quot;&gt;&lt;b&gt;DE父元素的左子元素指向R&amp;nbsp;&lt;/b&gt;&lt;/font&gt;" style="shape=callout;whiteSpace=wrap;html=1;perimeter=calloutPerimeter;rounded=1;position2=0.36;direction=east;" vertex="1" parent="1">
          <mxGeometry x="2700" y="1870" width="160" height="80" as="geometry" />
        </mxCell>
        <mxCell id="WfEpro9q8Xd2pJnQMilD-104" value="7" style="ellipse;whiteSpace=wrap;html=1;aspect=fixed;fillColor=#f8cecc;strokeColor=#b85450;gradientColor=#ea6b66;" vertex="1" parent="1">
          <mxGeometry x="2480" y="2560" width="40" height="40" as="geometry" />
        </mxCell>
        <mxCell id="WfEpro9q8Xd2pJnQMilD-105" value="3" style="ellipse;whiteSpace=wrap;html=1;aspect=fixed;fillColor=#f5f5f5;strokeColor=#666666;gradientColor=#b3b3b3;" vertex="1" parent="1">
          <mxGeometry x="2440" y="2480" width="40" height="40" as="geometry" />
        </mxCell>
        <mxCell id="WfEpro9q8Xd2pJnQMilD-106" value="8" style="ellipse;whiteSpace=wrap;html=1;aspect=fixed;fillColor=#f5f5f5;strokeColor=#666666;gradientColor=#b3b3b3;" vertex="1" parent="1">
          <mxGeometry x="2520" y="2480" width="40" height="40" as="geometry" />
        </mxCell>
        <mxCell id="WfEpro9q8Xd2pJnQMilD-107" style="edgeStyle=none;rounded=1;sketch=0;orthogonalLoop=1;jettySize=auto;html=1;exitX=0.5;exitY=1;exitDx=0;exitDy=0;entryX=0.5;entryY=0;entryDx=0;entryDy=0;fontColor=#143642;strokeColor=#A8201A;fillColor=#FAE5C7;" edge="1" parent="1" target="WfEpro9q8Xd2pJnQMilD-105">
          <mxGeometry x="2400" y="2320" as="geometry">
            <mxPoint x="2500" y="2440" as="sourcePoint" />
          </mxGeometry>
        </mxCell>
        <mxCell id="WfEpro9q8Xd2pJnQMilD-108" style="edgeStyle=none;rounded=1;sketch=0;orthogonalLoop=1;jettySize=auto;html=1;exitX=0.5;exitY=1;exitDx=0;exitDy=0;entryX=0.5;entryY=0;entryDx=0;entryDy=0;fontColor=#143642;strokeColor=#A8201A;fillColor=#FAE5C7;" edge="1" parent="1" target="WfEpro9q8Xd2pJnQMilD-106">
          <mxGeometry x="2400" y="2320" as="geometry">
            <mxPoint x="2500" y="2440" as="sourcePoint" />
          </mxGeometry>
        </mxCell>
        <mxCell id="WfEpro9q8Xd2pJnQMilD-109" style="rounded=1;sketch=0;orthogonalLoop=1;jettySize=auto;html=1;exitX=0.5;exitY=1;exitDx=0;exitDy=0;entryX=0.5;entryY=0;entryDx=0;entryDy=0;fontColor=#143642;strokeColor=#A8201A;fillColor=#FAE5C7;" edge="1" parent="1" source="WfEpro9q8Xd2pJnQMilD-114" target="WfEpro9q8Xd2pJnQMilD-127">
          <mxGeometry x="2560" y="2320" as="geometry">
            <mxPoint x="2740" y="2360" as="sourcePoint" />
            <mxPoint x="2540" y="2400" as="targetPoint" />
          </mxGeometry>
        </mxCell>
        <mxCell id="WfEpro9q8Xd2pJnQMilD-110" value="16" style="ellipse;whiteSpace=wrap;html=1;aspect=fixed;fillColor=#f5f5f5;strokeColor=#666666;gradientColor=#b3b3b3;" vertex="1" parent="1">
          <mxGeometry x="2760" y="2480" width="40" height="40" as="geometry" />
        </mxCell>
        <mxCell id="WfEpro9q8Xd2pJnQMilD-111" value="3" style="ellipse;whiteSpace=wrap;html=1;aspect=fixed;fillColor=#f5f5f5;strokeColor=#666666;gradientColor=#b3b3b3;" vertex="1" parent="1">
          <mxGeometry x="2440" y="2480" width="40" height="40" as="geometry" />
        </mxCell>
        <mxCell id="WfEpro9q8Xd2pJnQMilD-112" value="8" style="ellipse;whiteSpace=wrap;html=1;aspect=fixed;fillColor=#f5f5f5;strokeColor=#666666;gradientColor=#b3b3b3;" vertex="1" parent="1">
          <mxGeometry x="2520" y="2480" width="40" height="40" as="geometry" />
        </mxCell>
        <mxCell id="WfEpro9q8Xd2pJnQMilD-113" style="edgeStyle=none;rounded=0;orthogonalLoop=1;jettySize=auto;html=1;exitX=0.5;exitY=1;exitDx=0;exitDy=0;entryX=0.5;entryY=0;entryDx=0;entryDy=0;gradientColor=#ea6b66;fillColor=#f8cecc;strokeColor=#b85450;" edge="1" parent="1" source="WfEpro9q8Xd2pJnQMilD-114" target="WfEpro9q8Xd2pJnQMilD-126">
          <mxGeometry relative="1" as="geometry" />
        </mxCell>
        <mxCell id="WfEpro9q8Xd2pJnQMilD-114" value="12" style="ellipse;whiteSpace=wrap;html=1;aspect=fixed;fillColor=#f5f5f5;strokeColor=#666666;gradientColor=#b3b3b3;" vertex="1" parent="1">
          <mxGeometry x="2600" y="2320" width="40" height="40" as="geometry" />
        </mxCell>
        <mxCell id="WfEpro9q8Xd2pJnQMilD-115" value="3" style="ellipse;whiteSpace=wrap;html=1;aspect=fixed;fillColor=#f5f5f5;strokeColor=#666666;gradientColor=#b3b3b3;" vertex="1" parent="1">
          <mxGeometry x="2440" y="2480" width="40" height="40" as="geometry" />
        </mxCell>
        <mxCell id="WfEpro9q8Xd2pJnQMilD-116" style="edgeStyle=none;rounded=0;orthogonalLoop=1;jettySize=auto;html=1;exitX=0.5;exitY=1;exitDx=0;exitDy=0;entryX=0.5;entryY=0;entryDx=0;entryDy=0;strokeColor=#A8201A;" edge="1" parent="1" source="WfEpro9q8Xd2pJnQMilD-118" target="WfEpro9q8Xd2pJnQMilD-104">
          <mxGeometry relative="1" as="geometry" />
        </mxCell>
        <mxCell id="WfEpro9q8Xd2pJnQMilD-117" style="edgeStyle=none;rounded=0;orthogonalLoop=1;jettySize=auto;html=1;exitX=0.5;exitY=1;exitDx=0;exitDy=0;entryX=0.5;entryY=0;entryDx=0;entryDy=0;strokeColor=#A8201A;" edge="1" parent="1" source="WfEpro9q8Xd2pJnQMilD-118" target="WfEpro9q8Xd2pJnQMilD-119">
          <mxGeometry relative="1" as="geometry" />
        </mxCell>
        <mxCell id="WfEpro9q8Xd2pJnQMilD-118" value="8" style="ellipse;whiteSpace=wrap;html=1;aspect=fixed;fillColor=#f5f5f5;strokeColor=#666666;gradientColor=#b3b3b3;" vertex="1" parent="1">
          <mxGeometry x="2520" y="2480" width="40" height="40" as="geometry" />
        </mxCell>
        <mxCell id="WfEpro9q8Xd2pJnQMilD-119" value="9" style="ellipse;whiteSpace=wrap;html=1;aspect=fixed;fillColor=#f8cecc;strokeColor=#b85450;gradientColor=#ea6b66;" vertex="1" parent="1">
          <mxGeometry x="2560" y="2560" width="40" height="40" as="geometry" />
        </mxCell>
        <mxCell id="WfEpro9q8Xd2pJnQMilD-121" value="14" style="ellipse;whiteSpace=wrap;html=1;aspect=fixed;fillColor=#f5f5f5;strokeColor=#666666;gradientColor=#b3b3b3;" vertex="1" parent="1">
          <mxGeometry x="2680" y="2480" width="40" height="40" as="geometry" />
        </mxCell>
        <mxCell id="WfEpro9q8Xd2pJnQMilD-122" style="edgeStyle=none;rounded=0;orthogonalLoop=1;jettySize=auto;html=1;exitX=0.5;exitY=1;exitDx=0;exitDy=0;entryX=0.5;entryY=0;entryDx=0;entryDy=0;gradientColor=#ea6b66;fillColor=#f8cecc;strokeColor=#b85450;" edge="1" parent="1" source="WfEpro9q8Xd2pJnQMilD-126" target="WfEpro9q8Xd2pJnQMilD-110">
          <mxGeometry relative="1" as="geometry" />
        </mxCell>
        <mxCell id="WfEpro9q8Xd2pJnQMilD-124" style="edgeStyle=orthogonalEdgeStyle;rounded=0;orthogonalLoop=1;jettySize=auto;html=1;exitX=0.5;exitY=1;exitDx=0;exitDy=0;entryX=0;entryY=0.5;entryDx=0;entryDy=0;dashed=1;gradientColor=#ea6b66;fillColor=#f8cecc;strokeColor=#b85450;" edge="1" parent="1" source="WfEpro9q8Xd2pJnQMilD-126" target="WfEpro9q8Xd2pJnQMilD-134">
          <mxGeometry relative="1" as="geometry">
            <Array as="points">
              <mxPoint x="2620" y="2440" />
              <mxPoint x="2620" y="2660" />
            </Array>
          </mxGeometry>
        </mxCell>
        <mxCell id="WfEpro9q8Xd2pJnQMilD-125" value="&lt;font style=&quot;font-size: 13px&quot;&gt;&lt;b&gt;left&lt;/b&gt;&lt;/font&gt;" style="edgeLabel;html=1;align=center;verticalAlign=middle;resizable=0;points=[];" vertex="1" connectable="0" parent="WfEpro9q8Xd2pJnQMilD-124">
          <mxGeometry x="-0.0864" relative="1" as="geometry">
            <mxPoint as="offset" />
          </mxGeometry>
        </mxCell>
        <mxCell id="WfEpro9q8Xd2pJnQMilD-126" value="15" style="ellipse;whiteSpace=wrap;html=1;aspect=fixed;fillColor=#f8cecc;strokeColor=#b85450;gradientColor=#ea6b66;" vertex="1" parent="1">
          <mxGeometry x="2720" y="2400" width="40" height="40" as="geometry" />
        </mxCell>
        <mxCell id="WfEpro9q8Xd2pJnQMilD-127" value="5" style="ellipse;whiteSpace=wrap;html=1;aspect=fixed;fillColor=#f8cecc;strokeColor=#b85450;gradientColor=#ea6b66;" vertex="1" parent="1">
          <mxGeometry x="2480" y="2400" width="40" height="40" as="geometry" />
        </mxCell>
        <mxCell id="WfEpro9q8Xd2pJnQMilD-128" value="3" style="ellipse;whiteSpace=wrap;html=1;aspect=fixed;fillColor=#f5f5f5;strokeColor=#666666;gradientColor=#b3b3b3;" vertex="1" parent="1">
          <mxGeometry x="2440" y="2480" width="40" height="40" as="geometry" />
        </mxCell>
        <mxCell id="WfEpro9q8Xd2pJnQMilD-129" value="8" style="ellipse;whiteSpace=wrap;html=1;aspect=fixed;fillColor=#f5f5f5;strokeColor=#666666;gradientColor=#b3b3b3;" vertex="1" parent="1">
          <mxGeometry x="2520" y="2480" width="40" height="40" as="geometry" />
        </mxCell>
        <mxCell id="WfEpro9q8Xd2pJnQMilD-130" value="13" style="ellipse;whiteSpace=wrap;html=1;aspect=fixed;fillColor=#f8cecc;strokeColor=#b85450;gradientColor=#ea6b66;" vertex="1" parent="1">
          <mxGeometry x="2640" y="2560" width="40" height="40" as="geometry" />
        </mxCell>
        <mxCell id="WfEpro9q8Xd2pJnQMilD-131" style="edgeStyle=none;rounded=0;orthogonalLoop=1;jettySize=auto;html=1;exitX=0.5;exitY=0;exitDx=0;exitDy=0;entryX=0.5;entryY=1;entryDx=0;entryDy=0;gradientColor=#ea6b66;fillColor=#f8cecc;strokeColor=#b85450;dashed=1;" edge="1" parent="1" source="WfEpro9q8Xd2pJnQMilD-134" target="WfEpro9q8Xd2pJnQMilD-130">
          <mxGeometry relative="1" as="geometry" />
        </mxCell>
        <mxCell id="WfEpro9q8Xd2pJnQMilD-132" style="edgeStyle=orthogonalEdgeStyle;rounded=0;orthogonalLoop=1;jettySize=auto;html=1;exitX=0.5;exitY=0;exitDx=0;exitDy=0;entryX=1;entryY=0.5;entryDx=0;entryDy=0;dashed=1;gradientColor=#ea6b66;fillColor=#f8cecc;strokeColor=#b85450;" edge="1" parent="1" source="WfEpro9q8Xd2pJnQMilD-134" target="WfEpro9q8Xd2pJnQMilD-126">
          <mxGeometry relative="1" as="geometry">
            <Array as="points">
              <mxPoint x="2740" y="2550" />
              <mxPoint x="2810" y="2550" />
              <mxPoint x="2810" y="2420" />
            </Array>
          </mxGeometry>
        </mxCell>
        <mxCell id="WfEpro9q8Xd2pJnQMilD-133" value="&lt;font style=&quot;font-size: 13px&quot;&gt;parent&lt;/font&gt;" style="edgeLabel;html=1;align=center;verticalAlign=middle;resizable=0;points=[];fontStyle=1" vertex="1" connectable="0" parent="WfEpro9q8Xd2pJnQMilD-132">
          <mxGeometry x="-0.132" y="4" relative="1" as="geometry">
            <mxPoint x="-28" y="4" as="offset" />
          </mxGeometry>
        </mxCell>
        <mxCell id="WfEpro9q8Xd2pJnQMilD-134" value="R" style="ellipse;whiteSpace=wrap;html=1;aspect=fixed;fillColor=#d5e8d4;strokeColor=#82b366;fontSize=8;gradientColor=#97d077;" vertex="1" parent="1">
          <mxGeometry x="2720" y="2640" width="40" height="40" as="geometry" />
        </mxCell>
        <mxCell id="WfEpro9q8Xd2pJnQMilD-136" value="" style="html=1;shadow=0;dashed=0;align=center;verticalAlign=middle;shape=mxgraph.arrows2.arrow;dy=0.6;dx=40;notch=0;rounded=1;glass=0;sketch=0;fontColor=#143642;strokeColor=#0F8B8D;fillColor=#FAE5C7;direction=south;" vertex="1" parent="1">
          <mxGeometry x="2610" y="2240" width="20" height="70" as="geometry" />
        </mxCell>
        <mxCell id="WfEpro9q8Xd2pJnQMilD-137" value="&lt;font color=&quot;#143642&quot;&gt;&lt;b&gt;断开DE自身属性的&amp;nbsp;所有引用关系，包含左右子元素和父元素&lt;/b&gt;&lt;/font&gt;" style="shape=callout;whiteSpace=wrap;html=1;perimeter=calloutPerimeter;rounded=1;position2=0;direction=east;size=30;position=0.29;" vertex="1" parent="1">
          <mxGeometry x="2700" y="2280" width="170" height="80" as="geometry" />
        </mxCell>
        <mxCell id="WfEpro9q8Xd2pJnQMilD-167" value="7" style="ellipse;whiteSpace=wrap;html=1;aspect=fixed;fillColor=#f8cecc;strokeColor=#b85450;gradientColor=#ea6b66;" vertex="1" parent="1">
          <mxGeometry x="2120" y="2560" width="40" height="40" as="geometry" />
        </mxCell>
        <mxCell id="WfEpro9q8Xd2pJnQMilD-168" value="3" style="ellipse;whiteSpace=wrap;html=1;aspect=fixed;fillColor=#f5f5f5;strokeColor=#666666;gradientColor=#b3b3b3;" vertex="1" parent="1">
          <mxGeometry x="2080" y="2480" width="40" height="40" as="geometry" />
        </mxCell>
        <mxCell id="WfEpro9q8Xd2pJnQMilD-169" value="8" style="ellipse;whiteSpace=wrap;html=1;aspect=fixed;fillColor=#f5f5f5;strokeColor=#666666;gradientColor=#b3b3b3;" vertex="1" parent="1">
          <mxGeometry x="2160" y="2480" width="40" height="40" as="geometry" />
        </mxCell>
        <mxCell id="WfEpro9q8Xd2pJnQMilD-170" style="edgeStyle=none;rounded=1;sketch=0;orthogonalLoop=1;jettySize=auto;html=1;exitX=0.5;exitY=1;exitDx=0;exitDy=0;entryX=0.5;entryY=0;entryDx=0;entryDy=0;fontColor=#143642;strokeColor=#A8201A;fillColor=#FAE5C7;" edge="1" parent="1" target="WfEpro9q8Xd2pJnQMilD-168">
          <mxGeometry x="2040" y="2320" as="geometry">
            <mxPoint x="2140" y="2440" as="sourcePoint" />
          </mxGeometry>
        </mxCell>
        <mxCell id="WfEpro9q8Xd2pJnQMilD-171" style="edgeStyle=none;rounded=1;sketch=0;orthogonalLoop=1;jettySize=auto;html=1;exitX=0.5;exitY=1;exitDx=0;exitDy=0;entryX=0.5;entryY=0;entryDx=0;entryDy=0;fontColor=#143642;strokeColor=#A8201A;fillColor=#FAE5C7;" edge="1" parent="1" target="WfEpro9q8Xd2pJnQMilD-169">
          <mxGeometry x="2040" y="2320" as="geometry">
            <mxPoint x="2140" y="2440" as="sourcePoint" />
          </mxGeometry>
        </mxCell>
        <mxCell id="WfEpro9q8Xd2pJnQMilD-172" style="rounded=1;sketch=0;orthogonalLoop=1;jettySize=auto;html=1;exitX=0.5;exitY=1;exitDx=0;exitDy=0;entryX=0.5;entryY=0;entryDx=0;entryDy=0;fontColor=#143642;strokeColor=#A8201A;fillColor=#FAE5C7;" edge="1" parent="1" source="WfEpro9q8Xd2pJnQMilD-177" target="WfEpro9q8Xd2pJnQMilD-188">
          <mxGeometry x="2162.5" y="2320" as="geometry">
            <mxPoint x="2342.5" y="2360" as="sourcePoint" />
            <mxPoint x="2142.5" y="2400" as="targetPoint" />
          </mxGeometry>
        </mxCell>
        <mxCell id="WfEpro9q8Xd2pJnQMilD-173" value="16" style="ellipse;whiteSpace=wrap;html=1;aspect=fixed;fillColor=#f5f5f5;strokeColor=#666666;gradientColor=#b3b3b3;" vertex="1" parent="1">
          <mxGeometry x="2322.5" y="2480" width="40" height="40" as="geometry" />
        </mxCell>
        <mxCell id="WfEpro9q8Xd2pJnQMilD-174" value="3" style="ellipse;whiteSpace=wrap;html=1;aspect=fixed;fillColor=#f5f5f5;strokeColor=#666666;gradientColor=#b3b3b3;" vertex="1" parent="1">
          <mxGeometry x="2080" y="2480" width="40" height="40" as="geometry" />
        </mxCell>
        <mxCell id="WfEpro9q8Xd2pJnQMilD-175" value="8" style="ellipse;whiteSpace=wrap;html=1;aspect=fixed;fillColor=#f5f5f5;strokeColor=#666666;gradientColor=#b3b3b3;" vertex="1" parent="1">
          <mxGeometry x="2160" y="2480" width="40" height="40" as="geometry" />
        </mxCell>
        <mxCell id="WfEpro9q8Xd2pJnQMilD-176" style="edgeStyle=none;rounded=0;orthogonalLoop=1;jettySize=auto;html=1;exitX=0.5;exitY=1;exitDx=0;exitDy=0;entryX=0.5;entryY=0;entryDx=0;entryDy=0;gradientColor=#ea6b66;fillColor=#f8cecc;strokeColor=#b85450;" edge="1" parent="1" source="WfEpro9q8Xd2pJnQMilD-177" target="WfEpro9q8Xd2pJnQMilD-187">
          <mxGeometry relative="1" as="geometry" />
        </mxCell>
        <mxCell id="WfEpro9q8Xd2pJnQMilD-177" value="12" style="ellipse;whiteSpace=wrap;html=1;aspect=fixed;fillColor=#f5f5f5;strokeColor=#666666;gradientColor=#b3b3b3;" vertex="1" parent="1">
          <mxGeometry x="2202.5" y="2320" width="40" height="40" as="geometry" />
        </mxCell>
        <mxCell id="WfEpro9q8Xd2pJnQMilD-178" value="3" style="ellipse;whiteSpace=wrap;html=1;aspect=fixed;fillColor=#f5f5f5;strokeColor=#666666;gradientColor=#b3b3b3;" vertex="1" parent="1">
          <mxGeometry x="2080" y="2480" width="40" height="40" as="geometry" />
        </mxCell>
        <mxCell id="WfEpro9q8Xd2pJnQMilD-179" style="edgeStyle=none;rounded=0;orthogonalLoop=1;jettySize=auto;html=1;exitX=0.5;exitY=1;exitDx=0;exitDy=0;entryX=0.5;entryY=0;entryDx=0;entryDy=0;strokeColor=#A8201A;" edge="1" parent="1" source="WfEpro9q8Xd2pJnQMilD-181" target="WfEpro9q8Xd2pJnQMilD-167">
          <mxGeometry relative="1" as="geometry" />
        </mxCell>
        <mxCell id="WfEpro9q8Xd2pJnQMilD-180" style="edgeStyle=none;rounded=0;orthogonalLoop=1;jettySize=auto;html=1;exitX=0.5;exitY=1;exitDx=0;exitDy=0;entryX=0.5;entryY=0;entryDx=0;entryDy=0;strokeColor=#A8201A;" edge="1" parent="1" source="WfEpro9q8Xd2pJnQMilD-181" target="WfEpro9q8Xd2pJnQMilD-182">
          <mxGeometry relative="1" as="geometry" />
        </mxCell>
        <mxCell id="WfEpro9q8Xd2pJnQMilD-181" value="8" style="ellipse;whiteSpace=wrap;html=1;aspect=fixed;fillColor=#f5f5f5;strokeColor=#666666;gradientColor=#b3b3b3;" vertex="1" parent="1">
          <mxGeometry x="2160" y="2480" width="40" height="40" as="geometry" />
        </mxCell>
        <mxCell id="WfEpro9q8Xd2pJnQMilD-182" value="9" style="ellipse;whiteSpace=wrap;html=1;aspect=fixed;fillColor=#f8cecc;strokeColor=#b85450;gradientColor=#ea6b66;" vertex="1" parent="1">
          <mxGeometry x="2200" y="2560" width="40" height="40" as="geometry" />
        </mxCell>
        <mxCell id="WfEpro9q8Xd2pJnQMilD-184" style="edgeStyle=none;rounded=0;orthogonalLoop=1;jettySize=auto;html=1;exitX=0.5;exitY=1;exitDx=0;exitDy=0;entryX=0.5;entryY=0;entryDx=0;entryDy=0;gradientColor=#ea6b66;fillColor=#f8cecc;strokeColor=#b85450;" edge="1" parent="1" source="WfEpro9q8Xd2pJnQMilD-187" target="WfEpro9q8Xd2pJnQMilD-173">
          <mxGeometry relative="1" as="geometry" />
        </mxCell>
        <mxCell id="WfEpro9q8Xd2pJnQMilD-198" style="rounded=0;orthogonalLoop=1;jettySize=auto;html=1;exitX=0.5;exitY=1;exitDx=0;exitDy=0;entryX=0.5;entryY=0;entryDx=0;entryDy=0;gradientColor=#ea6b66;fillColor=#f8cecc;strokeColor=#b85450;" edge="1" parent="1" source="WfEpro9q8Xd2pJnQMilD-187" target="WfEpro9q8Xd2pJnQMilD-197">
          <mxGeometry relative="1" as="geometry" />
        </mxCell>
        <mxCell id="WfEpro9q8Xd2pJnQMilD-187" value="15" style="ellipse;whiteSpace=wrap;html=1;aspect=fixed;fillColor=#f8cecc;strokeColor=#b85450;gradientColor=#ea6b66;" vertex="1" parent="1">
          <mxGeometry x="2282.5" y="2400" width="40" height="40" as="geometry" />
        </mxCell>
        <mxCell id="WfEpro9q8Xd2pJnQMilD-188" value="5" style="ellipse;whiteSpace=wrap;html=1;aspect=fixed;fillColor=#f8cecc;strokeColor=#b85450;gradientColor=#ea6b66;" vertex="1" parent="1">
          <mxGeometry x="2120" y="2400" width="40" height="40" as="geometry" />
        </mxCell>
        <mxCell id="WfEpro9q8Xd2pJnQMilD-189" value="3" style="ellipse;whiteSpace=wrap;html=1;aspect=fixed;fillColor=#f5f5f5;strokeColor=#666666;gradientColor=#b3b3b3;" vertex="1" parent="1">
          <mxGeometry x="2080" y="2480" width="40" height="40" as="geometry" />
        </mxCell>
        <mxCell id="WfEpro9q8Xd2pJnQMilD-190" value="8" style="ellipse;whiteSpace=wrap;html=1;aspect=fixed;fillColor=#f5f5f5;strokeColor=#666666;gradientColor=#b3b3b3;" vertex="1" parent="1">
          <mxGeometry x="2160" y="2480" width="40" height="40" as="geometry" />
        </mxCell>
        <mxCell id="WfEpro9q8Xd2pJnQMilD-196" value="" style="html=1;shadow=0;dashed=0;align=center;verticalAlign=middle;shape=mxgraph.arrows2.arrow;dy=0.6;dx=40;notch=0;rounded=1;glass=0;sketch=0;fontColor=#143642;strokeColor=#0F8B8D;fillColor=#FAE5C7;direction=west;" vertex="1" parent="1">
          <mxGeometry x="2380" y="2430" width="70" height="20" as="geometry" />
        </mxCell>
        <mxCell id="WfEpro9q8Xd2pJnQMilD-197" value="13" style="ellipse;whiteSpace=wrap;html=1;aspect=fixed;fillColor=#f8cecc;strokeColor=#b85450;gradientColor=#ea6b66;" vertex="1" parent="1">
          <mxGeometry x="2242.5" y="2480" width="40" height="40" as="geometry" />
        </mxCell>
        <mxCell id="WfEpro9q8Xd2pJnQMilD-199" value="7" style="ellipse;whiteSpace=wrap;html=1;aspect=fixed;fillColor=#f8cecc;strokeColor=#b85450;gradientColor=#ea6b66;" vertex="1" parent="1">
          <mxGeometry x="1758.75" y="2560" width="40" height="40" as="geometry" />
        </mxCell>
        <mxCell id="WfEpro9q8Xd2pJnQMilD-200" value="3" style="ellipse;whiteSpace=wrap;html=1;aspect=fixed;fillColor=#f5f5f5;strokeColor=#666666;gradientColor=#b3b3b3;" vertex="1" parent="1">
          <mxGeometry x="1718.75" y="2480" width="40" height="40" as="geometry" />
        </mxCell>
        <mxCell id="WfEpro9q8Xd2pJnQMilD-201" value="8" style="ellipse;whiteSpace=wrap;html=1;aspect=fixed;fillColor=#f5f5f5;strokeColor=#666666;gradientColor=#b3b3b3;" vertex="1" parent="1">
          <mxGeometry x="1798.75" y="2480" width="40" height="40" as="geometry" />
        </mxCell>
        <mxCell id="WfEpro9q8Xd2pJnQMilD-202" style="edgeStyle=none;rounded=1;sketch=0;orthogonalLoop=1;jettySize=auto;html=1;exitX=0.5;exitY=1;exitDx=0;exitDy=0;entryX=0.5;entryY=0;entryDx=0;entryDy=0;fontColor=#143642;strokeColor=#A8201A;fillColor=#FAE5C7;" edge="1" parent="1" target="WfEpro9q8Xd2pJnQMilD-200">
          <mxGeometry x="1678.75" y="2320" as="geometry">
            <mxPoint x="1778.75" y="2440" as="sourcePoint" />
          </mxGeometry>
        </mxCell>
        <mxCell id="WfEpro9q8Xd2pJnQMilD-203" style="edgeStyle=none;rounded=1;sketch=0;orthogonalLoop=1;jettySize=auto;html=1;exitX=0.5;exitY=1;exitDx=0;exitDy=0;entryX=0.5;entryY=0;entryDx=0;entryDy=0;fontColor=#143642;strokeColor=#A8201A;fillColor=#FAE5C7;" edge="1" parent="1" target="WfEpro9q8Xd2pJnQMilD-201">
          <mxGeometry x="1678.75" y="2320" as="geometry">
            <mxPoint x="1778.75" y="2440" as="sourcePoint" />
          </mxGeometry>
        </mxCell>
        <mxCell id="WfEpro9q8Xd2pJnQMilD-204" style="rounded=1;sketch=0;orthogonalLoop=1;jettySize=auto;html=1;exitX=0.5;exitY=1;exitDx=0;exitDy=0;entryX=0.5;entryY=0;entryDx=0;entryDy=0;fontColor=#143642;strokeColor=#A8201A;fillColor=#FAE5C7;" edge="1" parent="1" source="WfEpro9q8Xd2pJnQMilD-209" target="WfEpro9q8Xd2pJnQMilD-218">
          <mxGeometry x="1801.25" y="2320" as="geometry">
            <mxPoint x="1981.25" y="2360" as="sourcePoint" />
            <mxPoint x="1781.25" y="2400" as="targetPoint" />
          </mxGeometry>
        </mxCell>
        <mxCell id="WfEpro9q8Xd2pJnQMilD-205" value="16" style="ellipse;whiteSpace=wrap;html=1;aspect=fixed;fillColor=#f5f5f5;strokeColor=#666666;gradientColor=#b3b3b3;" vertex="1" parent="1">
          <mxGeometry x="1961.25" y="2480" width="40" height="40" as="geometry" />
        </mxCell>
        <mxCell id="WfEpro9q8Xd2pJnQMilD-206" value="3" style="ellipse;whiteSpace=wrap;html=1;aspect=fixed;fillColor=#f5f5f5;strokeColor=#666666;gradientColor=#b3b3b3;" vertex="1" parent="1">
          <mxGeometry x="1718.75" y="2480" width="40" height="40" as="geometry" />
        </mxCell>
        <mxCell id="WfEpro9q8Xd2pJnQMilD-207" value="8" style="ellipse;whiteSpace=wrap;html=1;aspect=fixed;fillColor=#f5f5f5;strokeColor=#666666;gradientColor=#b3b3b3;" vertex="1" parent="1">
          <mxGeometry x="1798.75" y="2480" width="40" height="40" as="geometry" />
        </mxCell>
        <mxCell id="WfEpro9q8Xd2pJnQMilD-208" style="edgeStyle=none;rounded=0;orthogonalLoop=1;jettySize=auto;html=1;exitX=0.5;exitY=1;exitDx=0;exitDy=0;entryX=0.5;entryY=0;entryDx=0;entryDy=0;gradientColor=#ea6b66;fillColor=#f8cecc;strokeColor=#b85450;" edge="1" parent="1" source="WfEpro9q8Xd2pJnQMilD-209" target="WfEpro9q8Xd2pJnQMilD-217">
          <mxGeometry relative="1" as="geometry" />
        </mxCell>
        <mxCell id="WfEpro9q8Xd2pJnQMilD-209" value="12" style="ellipse;whiteSpace=wrap;html=1;aspect=fixed;fillColor=#f5f5f5;strokeColor=#666666;gradientColor=#b3b3b3;" vertex="1" parent="1">
          <mxGeometry x="1841.25" y="2320" width="40" height="40" as="geometry" />
        </mxCell>
        <mxCell id="WfEpro9q8Xd2pJnQMilD-210" value="3" style="ellipse;whiteSpace=wrap;html=1;aspect=fixed;fillColor=#f5f5f5;strokeColor=#666666;gradientColor=#b3b3b3;" vertex="1" parent="1">
          <mxGeometry x="1718.75" y="2480" width="40" height="40" as="geometry" />
        </mxCell>
        <mxCell id="WfEpro9q8Xd2pJnQMilD-211" style="edgeStyle=none;rounded=0;orthogonalLoop=1;jettySize=auto;html=1;exitX=0.5;exitY=1;exitDx=0;exitDy=0;entryX=0.5;entryY=0;entryDx=0;entryDy=0;strokeColor=#A8201A;" edge="1" parent="1" source="WfEpro9q8Xd2pJnQMilD-213" target="WfEpro9q8Xd2pJnQMilD-199">
          <mxGeometry relative="1" as="geometry" />
        </mxCell>
        <mxCell id="WfEpro9q8Xd2pJnQMilD-212" style="edgeStyle=none;rounded=0;orthogonalLoop=1;jettySize=auto;html=1;exitX=0.5;exitY=1;exitDx=0;exitDy=0;entryX=0.5;entryY=0;entryDx=0;entryDy=0;strokeColor=#A8201A;" edge="1" parent="1" source="WfEpro9q8Xd2pJnQMilD-213" target="WfEpro9q8Xd2pJnQMilD-214">
          <mxGeometry relative="1" as="geometry" />
        </mxCell>
        <mxCell id="WfEpro9q8Xd2pJnQMilD-213" value="8" style="ellipse;whiteSpace=wrap;html=1;aspect=fixed;fillColor=#f5f5f5;strokeColor=#666666;gradientColor=#b3b3b3;" vertex="1" parent="1">
          <mxGeometry x="1798.75" y="2480" width="40" height="40" as="geometry" />
        </mxCell>
        <mxCell id="WfEpro9q8Xd2pJnQMilD-214" value="9" style="ellipse;whiteSpace=wrap;html=1;aspect=fixed;fillColor=#f8cecc;strokeColor=#b85450;gradientColor=#ea6b66;" vertex="1" parent="1">
          <mxGeometry x="1838.75" y="2560" width="40" height="40" as="geometry" />
        </mxCell>
        <mxCell id="WfEpro9q8Xd2pJnQMilD-215" style="edgeStyle=none;rounded=0;orthogonalLoop=1;jettySize=auto;html=1;exitX=0.5;exitY=1;exitDx=0;exitDy=0;entryX=0.5;entryY=0;entryDx=0;entryDy=0;gradientColor=#ea6b66;fillColor=#f8cecc;strokeColor=#b85450;" edge="1" parent="1" source="WfEpro9q8Xd2pJnQMilD-217" target="WfEpro9q8Xd2pJnQMilD-205">
          <mxGeometry relative="1" as="geometry" />
        </mxCell>
        <mxCell id="WfEpro9q8Xd2pJnQMilD-216" style="rounded=0;orthogonalLoop=1;jettySize=auto;html=1;exitX=0.5;exitY=1;exitDx=0;exitDy=0;entryX=0.5;entryY=0;entryDx=0;entryDy=0;gradientColor=#ea6b66;fillColor=#f8cecc;strokeColor=#b85450;" edge="1" parent="1" source="WfEpro9q8Xd2pJnQMilD-217" target="WfEpro9q8Xd2pJnQMilD-221">
          <mxGeometry relative="1" as="geometry" />
        </mxCell>
        <mxCell id="WfEpro9q8Xd2pJnQMilD-217" value="15" style="ellipse;whiteSpace=wrap;html=1;aspect=fixed;fillColor=#f8cecc;strokeColor=#b85450;gradientColor=#ea6b66;" vertex="1" parent="1">
          <mxGeometry x="1921.25" y="2400" width="40" height="40" as="geometry" />
        </mxCell>
        <mxCell id="WfEpro9q8Xd2pJnQMilD-218" value="5" style="ellipse;whiteSpace=wrap;html=1;aspect=fixed;fillColor=#f8cecc;strokeColor=#b85450;gradientColor=#ea6b66;" vertex="1" parent="1">
          <mxGeometry x="1758.75" y="2400" width="40" height="40" as="geometry" />
        </mxCell>
        <mxCell id="WfEpro9q8Xd2pJnQMilD-219" value="3" style="ellipse;whiteSpace=wrap;html=1;aspect=fixed;fillColor=#f5f5f5;strokeColor=#666666;gradientColor=#b3b3b3;" vertex="1" parent="1">
          <mxGeometry x="1718.75" y="2480" width="40" height="40" as="geometry" />
        </mxCell>
        <mxCell id="WfEpro9q8Xd2pJnQMilD-220" value="8" style="ellipse;whiteSpace=wrap;html=1;aspect=fixed;fillColor=#f5f5f5;strokeColor=#666666;gradientColor=#b3b3b3;" vertex="1" parent="1">
          <mxGeometry x="1798.75" y="2480" width="40" height="40" as="geometry" />
        </mxCell>
        <mxCell id="WfEpro9q8Xd2pJnQMilD-221" value="13" style="ellipse;whiteSpace=wrap;html=1;aspect=fixed;fillColor=#f8cecc;strokeColor=#b85450;gradientColor=#ea6b66;" vertex="1" parent="1">
          <mxGeometry x="1881.25" y="2480" width="40" height="40" as="geometry" />
        </mxCell>
        <mxCell id="WfEpro9q8Xd2pJnQMilD-225" value="" style="html=1;shadow=0;dashed=0;align=center;verticalAlign=middle;shape=mxgraph.arrows2.arrow;dy=0.6;dx=40;notch=0;rounded=1;glass=0;sketch=0;fontColor=#143642;strokeColor=#0F8B8D;fillColor=#FAE5C7;direction=west;" vertex="1" parent="1">
          <mxGeometry x="2000" y="2430" width="70" height="20" as="geometry" />
        </mxCell>
      </root>
    </mxGraphModel>
  </diagram>
</mxfile>
